<?xml version="1.0" encoding="iso-8859-1"?>
<!-- Generator: Adobe Illustrator 19.0.0, SVG Export Plug-In . SVG Version: 6.00 Build 0)  -->
<svg version="1.1" id="Layer_1" xmlns="http://www.w3.org/2000/svg" xmlns:xlink="http://www.w3.org/1999/xlink" x="0px" y="0px"
	 viewBox="0 0 480 480" style="enable-background:new 0 0 480 480;" xml:space="preserve">
<path style="fill:#F9BA48;" d="M240,24c-39.704,0-72,32.296-72,72c0,23.992,12.152,46.496,32,59.8V184h80v-28.2
	c19.848-13.304,32-35.808,32-59.8C312,56.296,279.704,24,240,24z M240,112c-8.84,0-16-7.16-16-16s7.16-16,16-16s16,7.16,16,16
	S248.84,112,240,112z"/>
<g>
	<path style="fill:#333333;" d="M193.368,204.88c-0.848,2.216-1.368,4.6-1.368,7.12c0,11.032,8.968,20,20,20h56
		c11.032,0,20-8.968,20-20c0-2.52-0.52-4.904-1.368-7.12C292.24,201.328,296,195.12,296,188c0-11.032-8.968-20-20-20h-28v-49.472
		c9.288-3.312,16-12.112,16-22.528c0-13.232-10.768-24-24-24s-24,10.768-24,24c0,10.416,6.712,19.216,16,22.528V168h-28
		c-11.032,0-20,8.968-20,20C184,195.12,187.76,201.328,193.368,204.88z M240,88c4.416,0,8,3.584,8,8s-3.584,8-8,8s-8-3.584-8-8
		S235.584,88,240,88z M268,216h-56c-2.2,0-4-1.8-4-4s1.8-4,4-4h56c2.2,0,4,1.8,4,4S270.2,216,268,216z M204,184h72c2.2,0,4,1.8,4,4
		s-1.8,4-4,4h-8h-56h-8c-2.2,0-4-1.8-4-4S201.8,184,204,184z"/>
	<path style="fill:#333333;" d="M307.44,375.2c-3.64-9.232-12.408-15.2-22.328-15.2H280v-92c0-15.44-12.56-28-28-28s-28,12.56-28,28
		v38.04c-2.84-1.208-5.848-2.04-9.04-2.04h-7.592C194.488,304,184,314.488,184,327.368V328h-8.632
		C162.488,328,152,338.488,152,351.368V352h-0.632C138.488,352,128,362.488,128,375.368V376v1.632v16.056
		c0,11.008,2.216,21.704,6.592,31.808l12.128,27.992c3.504,8.088,5.28,16.64,5.28,25.448V480h16v-1.072
		c0-11.008-2.216-21.704-6.592-31.808l-12.128-27.992c-2.08-4.8-3.48-9.784-4.328-14.864l30.08,30.08
		c4.68,4.68,10.824,7.016,16.968,7.016s12.288-2.336,16.968-7.016l1.376-1.376c3.792-3.792,5.968-8.552,6.688-13.48
		c0.32,0.016,0.632,0.088,0.952,0.088c4.312,0,8.648-1.184,12.472-3.608l0.488-0.304c1.144-0.76,2.128-1.688,3.104-2.624
		c3.616,3.272,8.04,5.72,13.032,6.968l10.728,2.688l6.616,19.832l15.168-5.064l-9.384-28.168l-19.248-4.816
		c-4.792-1.2-8.496-4.704-10.088-9.152l-0.08-0.24c-0.464-1.368-0.696-2.824-0.728-4.32l0.056-1.064
		c0.248-4.792,2.8-8.944,6.536-11.384c0.088-0.056,0.192-0.096,0.28-0.152c0.664-0.416,1.352-0.792,2.08-1.088
		c0.336-0.136,0.696-0.216,1.04-0.328c0.52-0.168,1.032-0.368,1.576-0.472c0.912-0.176,1.856-0.28,2.832-0.28H264h4.704H280h5.112
		c3.256,0,6.248,2.04,7.44,5.064l9.784,24.832c1.104,2.816,1.664,5.776,1.664,8.792v1.76c0,3.704-0.872,7.424-2.528,10.736
		l-9.248,18.496c-2.76,5.512-4.224,11.704-4.224,17.872V480h16v-16.448c0-3.704,0.872-7.424,2.528-10.736l9.248-18.496
		c2.76-5.512,4.224-11.704,4.224-17.872v-1.76c0-5.032-0.936-9.96-2.784-14.656L307.44,375.2z M252,256c6.616,0,12,5.384,12,12v92
		h-4.184L240,324.336V268C240,261.384,245.384,256,252,256z M200,327.368c0-4.064,3.304-7.368,7.368-7.368h7.592
		c2.672,0,5.144,1.456,6.44,3.792l21.408,38.536c-0.016,0.008-0.032,0.016-0.056,0.024c-0.272,0.112-0.512,0.272-0.776,0.392
		c-1.32,0.6-2.592,1.288-3.808,2.072c-0.536,0.344-1.048,0.712-1.568,1.088c-0.912,0.672-1.776,1.392-2.608,2.152
		c-0.48,0.44-0.976,0.856-1.432,1.328c-1.048,1.096-2.024,2.248-2.904,3.496L212.496,350l-9.488-12.648L203,337.344l-1.52-2.032
		c-0.976-1.296-1.48-2.824-1.48-4.44V327.368z M199.032,421.656l-1.376,1.376c-3.128,3.128-8.184,3.128-11.312,0l-40.184-40.184
		c-1.392-1.392-2.16-3.248-2.16-5.216V376v-0.632c0-4.064,3.304-7.368,7.368-7.368h2.264c1.968,0,3.824,0.768,5.208,2.16
		l40.184,40.184C202.152,413.464,202.152,418.536,199.032,421.656z M222.192,402.256l-0.16,0.104
		c-2.92,1.944-6.824,1.544-9.288-0.92l-2.408-2.408l-40.184-40.184c-1.384-1.392-2.152-3.248-2.152-5.216v-2.264
		c0-4.064,3.304-7.368,7.368-7.368h8.944c2.304,0,4.488,1.096,5.872,2.928l18.56,24.736l15.12,20.16
		c0.064,0.08,0.12,0.168,0.176,0.248c0.024,0.408,0.152,0.808,0.192,1.216c0.128,1.376,0.328,2.72,0.64,4.04
		c0.064,0.28,0.056,0.568,0.136,0.84C224.672,399.456,223.904,401.056,222.192,402.256z"/>
	<rect x="232" style="fill:#333333;" width="16" height="16"/>
	
		<rect x="188.006" y="11.79" transform="matrix(-0.8661 0.4999 -0.4999 -0.8661 375.6563 -61.0524)" style="fill:#333333;" width="16" height="16"/>
	
		<rect x="155.785" y="44.002" transform="matrix(-0.4999 0.8661 -0.8661 -0.4999 290.6982 -63.8541)" style="fill:#333333;" width="16" height="16"/>
	<rect x="144" y="88" style="fill:#333333;" width="16" height="16"/>
	
		<rect x="155.783" y="132.013" transform="matrix(-0.8661 0.4999 -0.4999 -0.8661 375.6258 179.4035)" style="fill:#333333;" width="16" height="16"/>
	
		<rect x="308.206" y="131.987" transform="matrix(-0.4999 0.8661 -0.8661 -0.4999 595.5167 -63.8968)" style="fill:#333333;" width="16" height="16"/>
	<rect x="320" y="88" style="fill:#333333;" width="16" height="16"/>
	
		<rect x="308.214" y="44.008" transform="matrix(-0.8661 0.4999 -0.4999 -0.8661 616.0824 -61.0218)" style="fill:#333333;" width="16" height="16"/>
	
		<rect x="275.994" y="11.778" transform="matrix(-0.4999 0.8661 -0.8661 -0.4999 443.0912 -216.2986)" style="fill:#333333;" width="16" height="16"/>
	<polygon style="fill:#333333;" points="480,96 464,96 464,80 448,80 448,96 432,96 432,112 448,112 448,128 464,128 464,112 
		480,112 	"/>
	<polygon style="fill:#333333;" points="384,48 400,48 400,32 416,32 416,16 400,16 400,0 384,0 384,16 368,16 368,32 384,32 	"/>
	<polygon style="fill:#333333;" points="32,128 16,128 16,144 0,144 0,160 16,160 16,176 32,176 32,160 48,160 48,144 32,144 	"/>
	<polygon style="fill:#333333;" points="104,80 104,64 88,64 88,48 72,48 72,64 56,64 56,80 72,80 72,96 88,96 88,80 	"/>
	<polygon style="fill:#333333;" points="128,256 128,240 144,240 144,224 128,224 128,208 112,208 112,224 96,224 96,240 112,240 
		112,256 	"/>
	<polygon style="fill:#333333;" points="408,168 392,168 392,184 376,184 376,200 392,200 392,216 408,216 408,200 424,200 424,184 
		408,184 	"/>
</g>
<g>
</g>
<g>
</g>
<g>
</g>
<g>
</g>
<g>
</g>
<g>
</g>
<g>
</g>
<g>
</g>
<g>
</g>
<g>
</g>
<g>
</g>
<g>
</g>
<g>
</g>
<g>
</g>
<g>
</g>
</svg>
