<?xml version="1.0" encoding="iso-8859-1"?>
<!-- Generator: Adobe Illustrator 19.0.0, SVG Export Plug-In . SVG Version: 6.00 Build 0)  -->
<svg version="1.1" id="Capa_1" xmlns="http://www.w3.org/2000/svg" xmlns:xlink="http://www.w3.org/1999/xlink" x="0px" y="0px"
	 viewBox="0 0 480 480" style="enable-background:new 0 0 480 480;" xml:space="preserve">
<rect x="136" y="352" style="fill:#8C8988;" width="208" height="32"/>
<rect x="200" y="320" style="fill:#595656;" width="80" height="32"/>
<path style="fill:#8C8988;" d="M24,0h432c13.6,0,24,10.4,24,24v272c0,13.6-10.4,24-24,24H24c-13.6,0-24-10.4-24-24V24
	C0,10.4,10.4,0,24,0z"/>
<rect x="32" y="32" style="fill:#BFBFBF;" width="416" height="256"/>
<polygon style="fill:#6E8C03;" points="288,208 288,104 288,104 272,120 248,96 280,64 312,64 336,96 360,64 392,64 424,96 400,120 
	384,104 384,208 "/>
<circle style="fill:#8C8988;" cx="304" cy="224" r="40"/>
<path style="fill:#C7B299;" d="M296,392l-16-48V240c0-8.8,7.2-16,16-16l0,0c8.8,0,16,7.2,16,16v88l16-24h16l16,24h16l16,24h16l16,24
	v48l-32,56h-88l-32-56l-8-40l24-16"/>
<polyline style="fill:#5491BD;" points="80,96 80,208 112,208 128,128 144,128 160,208 192,208 192,96 "/>
<g>
	<polygon style="fill:#3D6989;" points="116.8,184 120,168 80,168 80,184 	"/>
	<polygon style="fill:#3D6989;" points="192,168 152,168 155.2,184 192,184 	"/>
	<rect x="80" y="64" style="fill:#3D6989;" width="112" height="32"/>
</g>
<g>
</g>
<g>
</g>
<g>
</g>
<g>
</g>
<g>
</g>
<g>
</g>
<g>
</g>
<g>
</g>
<g>
</g>
<g>
</g>
<g>
</g>
<g>
</g>
<g>
</g>
<g>
</g>
<g>
</g>
</svg>
